<svg id="Layer_1" data-name="Layer 1" xmlns="http://www.w3.org/2000/svg" viewBox="0 0 860.34 571.15"><defs><style>.cls-1{fill:#f5f5f3;}.cls-2{fill:#dbdbdb;}.cls-3{fill:#e4e4e4;}.cls-4{fill:#f2f2f2;}.cls-5{fill:#292c30;}.cls-6{fill:#ccc;}.cls-7{opacity:0.2;isolation:isolate;}</style></defs><title>undraw_page_not_found_re_e9o6</title><g id="Layer_2" data-name="Layer 2"><rect class="cls-1" y="1.34" width="858.94" height="568.46"/></g><path class="cls-2" d="M435.74,160.53c-7.67-12.69-16.76-26.23-31-30.37-16.49-4.8-33.42,4.73-47.78,14.13a1391.33,1391.33,0,0,0-123.89,91.29l0,.49,92.45-6.38c22.27-1.53,45.3-3.28,65-13.81,7.47-4,14.75-9.34,23.21-9.71,10.51-.46,19.68,6.88,26.88,14.55,42.61,45.37,54.94,114.75,102.74,154.61A1516.79,1516.79,0,0,0,435.74,160.53Z" transform="translate(0.22)"/><path class="cls-3" d="M697.64,545.36c-4.72-6-6.64-7.35-11.29-13.35q-56.76-73.42-106.71-151.79Q545.72,327,515.16,271.71q-14.55-26.28-28.3-53Q476.2,198.05,466,177.1c-1.95-4-3.84-8-5.71-12-4.43-9.45-8.78-18.94-13.44-28.25-5.32-10.61-11.79-21.74-21.56-28.88A29.35,29.35,0,0,0,410,102.08c-8-.51-15.29,2.77-22.18,6.35-50.44,26.3-97.66,59.28-140.37,96.8a731,731,0,0,0-114,126.59c-1,1.44-3.39.07-2.38-1.38q6-8.51,12.26-16.82a735,735,0,0,1,187.6-175q18.25-11.83,37.18-22.54c6.37-3.61,12.75-7.16,19.25-10.5s13.14-6.22,20.42-6.33c24.77-.38,37.6,27.67,46.41,46.55q4.14,8.91,8.4,17.76,16.08,33.63,33.39,66.63,10.68,20.39,21.84,40.52,34.69,62.72,73.77,122.9C626,446.77,660.27,493.72,699.58,543.41,700.66,544.79,698.73,546.75,697.64,545.36Z" transform="translate(0.22)"/><path class="cls-3" d="M245,191.38c-1.44-1.61-2.87-3.21-4.32-4.81C229.24,173.93,217,161.45,201.3,154.2a57.11,57.11,0,0,0-23.93-5.54c-8.56,0-16.93,2.27-24.84,5.42-3.74,1.49-7.4,3.19-11,5-4.12,2.07-8.16,4.28-12.18,6.51Q118,171.85,107,178.67q-22,13.58-42.55,29.22Q53.77,216,43.53,224.65q-9.51,8-18.65,16.49c-1.3,1.2-3.24-.74-1.94-1.95,1.6-1.49,3.23-3,4.85-4.44q6.87-6.23,14-12.19,12.95-10.92,26.55-21,21.16-15.67,43.78-29.22,11.31-6.76,22.92-13c2.34-1.24,4.7-2.46,7.1-3.62A114.12,114.12,0,0,1,159,148.89a60.12,60.12,0,0,1,25.48-2.51A66.49,66.49,0,0,1,208,154.52c15.4,8.6,27.34,21.92,39,34.91C248.1,190.75,246.16,192.7,245,191.38Z" transform="translate(0.22)"/><path class="cls-3" d="M560.54,322.28l36.91-13.49,18.32-6.7c6-2.19,11.92-4.67,18.09-6.24a28.6,28.6,0,0,1,16.37.21A37.69,37.69,0,0,1,663,304a102.67,102.67,0,0,1,10.48,11.19c4,4.79,7.92,9.64,11.87,14.46q24.43,29.89,48.56,60t47.92,60.56q23.85,30.48,47.39,61.22L835,519c1,1.39,3.44,0,2.37-1.39q-23.7-31-47.74-61.83T741.1,394.29q-24.42-30.6-49.18-60.94-6.17-7.55-12.35-15.09c-3.48-4.24-6.92-8.53-10.74-12.48-7-7.24-15.76-13.65-26.24-13.82-6.15-.1-12.12,1.85-17.84,3.92-6.17,2.24-12.32,4.51-18.49,6.76L569.1,316.23l-9.29,3.4c-1.65.61-.94,3.26.73,2.66Z" transform="translate(0.22)"/><path class="cls-4" d="M196.44,170.1c-18.75-9.64-42.77-7.75-60,4.29a855.1,855.1,0,0,1,97.37,22.73C220.53,189.33,210.14,177.14,196.44,170.1Z" transform="translate(0.22)"/><path class="cls-5" d="M136.25,174.36l-3.61,2.93q1.83-1.53,3.8-2.9Z" transform="translate(0.22)"/><path class="cls-4" d="M661.61,322.42c-3.63-4.42-7.56-9.05-13-10.85l-5.07.2A575.41,575.41,0,0,0,796.81,487Z" transform="translate(0.22)"/><path class="cls-4" d="M346.15,285.94a37.53,37.53,0,0,0,14.93,21c2.82,1.92,6.16,3.76,7.12,7a8.35,8.35,0,0,1-.87,6.15,25.32,25.32,0,0,1-3.86,5.05l-.14.51c-7-4.15-13.66-9.4-17.52-16.55s-4.41-16.54.34-23.15" transform="translate(0.22)"/><path class="cls-4" d="M579.15,488.94a37.53,37.53,0,0,0,14.93,21c2.82,1.92,6.16,3.76,7.12,7a8.35,8.35,0,0,1-.87,6.15,25.32,25.32,0,0,1-3.86,5l-.14.51c-7-4.15-13.66-9.4-17.52-16.55s-4.41-16.54.34-23.15" transform="translate(0.22)"/><path class="cls-4" d="M114.15,474.94a37.53,37.53,0,0,0,14.93,21c2.82,1.92,6.16,3.76,7.12,7a8.35,8.35,0,0,1-.87,6.15,25.32,25.32,0,0,1-3.86,5.05l-.14.51c-7-4.15-13.66-9.4-17.52-16.55s-4.41-16.54.34-23.15" transform="translate(0.22)"/><circle class="cls-5" cx="649.47" cy="51" r="51"/><path class="cls-2" d="M640.85,49.4a372.23,372.23,0,0,0,160.66.73l2.83-2A21.6,21.6,0,0,0,763.24,46c-6.4-24.1-34.62-37.46-59.34-34.12S658,31.33,640.85,49.4Z" transform="translate(0.22)"/><path class="cls-2" d="M584.68,46.06c-24.71-3.34-52.93,10-59.34,34.12a21.59,21.59,0,0,0-41.09,2.11l2.83,2a372.39,372.39,0,0,0,160.66-.73C630.54,65.52,609.4,49.4,584.68,46.06Z" transform="translate(0.22)"/><path class="cls-6" d="M851,92.73a1,1,0,0,1-.3,0C586.3,9.06,353.27,20,204.33,43.9c-20.27,3.25-40.59,7-60.4,11.16-5.06,1.06-10.31,2.19-15.6,3.37-6.32,1.41-12.55,2.86-18.53,4.31q-3.89.91-7.6,1.85c-3.76.93-7.57,1.89-11.66,3C86,68.72,81.33,70,76.75,71.22h-.06c-5.18,1.42-10.33,2.87-15.32,4.33q-4,1.17-7.8,2.3l-.77.23-.54.17-.92.27h0l-.82.25-2.84.86c-24.54,7.57-38,12.95-38.17,13a1,1,0,0,1-.74-1.86c.13,0,13.69-5.46,38.33-13.06l2.85-.86.75-.24.08,0,.92-.28.53-.16.81-.24c2.47-.75,5.09-1.52,7.79-2.3,5-1.46,10.15-2.91,15.34-4.33l0,0h0C80.8,68,85.46,66.79,90,65.61c4.1-1.06,7.92-2,11.68-3q3.73-.93,7.61-1.86c6-1.45,12.23-2.9,18.56-4.31,5.3-1.18,10.56-2.32,15.63-3.38,19.84-4.16,40.19-7.92,60.49-11.18C353.16,18,586.53,7,851.31,90.78a1,1,0,0,1-.3,2Z" transform="translate(0.22)"/><path class="cls-5" d="M263,419.84a6.78,6.78,0,0,0-1.7-2.67,7,7,0,0,0-.92-.71c-2.61-1.74-6.51-2.13-9,0a5.79,5.79,0,0,0-.69.71q-1.11,1.36-2.28,2.67c-1.28,1.46-2.59,2.87-4,4.24l-1.18,1.15-.69.67c-.88.84-1.78,1.65-2.69,2.45-.48.43-1,.85-1.45,1.26-.73.61-1.46,1.22-2.2,1.81l-.21.16-.05,0s0,0,0,0a.18.18,0,0,0-.07.05c-.22.15-.37.25-.48.34l.12-.07-.55.42c-1.75,1.29-3.54,2.53-5.37,3.69a99.21,99.21,0,0,1-14.22,7.55l-1,.4a86,86,0,0,1-40.85,6q-2.13-.17-4.26-.45c-1.64-.24-3.27-.53-4.89-.86a97.7,97.7,0,0,1-18-5.44,118.18,118.18,0,0,1-20.66-12.12c-1-.71-2-1.42-3-2.11,1.15-2.82,2.28-5.64,3.38-8.48.55-1.37,1.08-2.74,1.6-4.12,4.09-10.63,7.93-21.36,11.61-32.13s7.23-21.88,10.53-32.92q.51-1.68,1-3.36,2.59-8.74,5-17.53c.15-.57.31-1.13.45-1.7q.69-2.52,1.35-5c1-3.79-1.26-8.32-5.24-9.23a7.64,7.64,0,0,0-9.22,5.24c-.43,1.62-.86,3.23-1.3,4.85q-3.17,11.75-6.66,23.41l-1,3.36q-7.71,25.41-16.93,50.31-1.11,3-2.25,6c-.37,1-.74,2-1.12,2.94-.73,1.93-1.48,3.86-2.23,5.79-.43,1.13-.87,2.26-1.31,3.38-.29.71-.57,1.42-.85,2.12a42.38,42.38,0,0,0-8.81-2.12l-.48-.06a27.41,27.41,0,0,0-7,.06A23.92,23.92,0,0,0,75.89,430.5c-4.77,7.51-4.71,18.25,2,24.63,6.89,6.57,17.32,6.52,25.43,2.41a28.37,28.37,0,0,0,10.52-9.86,51.52,51.52,0,0,0,2.74-4.65l.63.43,2.39,1.69a112.17,112.17,0,0,0,14.51,8.91,108.54,108.54,0,0,0,34.62,10.47l.8.1c1.33.17,2.67.3,4,.41a103.81,103.81,0,0,0,55.58-11.36q2.18-1.12,4.31-2.36,3.32-1.92,6.48-4.08c1.15-.78,2.27-1.57,3.38-2.4a100.88,100.88,0,0,0,13.51-11.95q2.36-2.47,4.51-5.11a8.06,8.06,0,0,0,2.2-5.3A7.68,7.68,0,0,0,263,419.84ZM97.4,443.66l.62-.47c-.06.15-.35.32-.62.47Zm3.21-3.23-.67.78a23.37,23.37,0,0,1-2.25,2.2l-.35.29h0a2.78,2.78,0,0,0-.42.22q-.64.39-1.32.72a17,17,0,0,1-2.71.75,16.82,16.82,0,0,1-2.13,0h0a14.84,14.84,0,0,1-1.45-.4c-.24-.12-.47-.26-.7-.4l-.22-.21a2.44,2.44,0,0,1-.27-.29h0l-.34-.6v0c-.08-.25-.15-.51-.21-.77a12.52,12.52,0,0,1,0-1.37,12.24,12.24,0,0,1,.54-1.88,10.27,10.27,0,0,1,.69-1.26l.23-.38v0c.15-.17.3-.35.46-.51s.56-.56.85-.83a16.89,16.89,0,0,1,1.75-1,19.48,19.48,0,0,1,2.93-.79,25,25,0,0,1,4.41,0,30.29,30.29,0,0,1,4.1,1,36.21,36.21,0,0,1-2.77,4.54Zm-11.12-3.29a2.31,2.31,0,0,1-.31.39,1.3,1.3,0,0,1,.31-.39Z" transform="translate(0.22)"/><path class="cls-5" d="M232.93,317.71l-.27,9.42q-.28,10.46-.59,20.92-.31,11.77-.66,23.54-.16,6.07-.34,12.15-.47,16.36-.92,32.72c0,1.13-.07,2.25-.1,3.38l-.45,16.23q-.25,8.81-.5,17.61-.18,6.6-.37,13.21L226,562.68a7.65,7.65,0,0,1-7.5,7.5,7.55,7.55,0,0,1-7.5-7.5q.75-26.94,1.52-53.88.67-24.36,1.37-48.72l.45-16.06q.34-12.09.68-24.18c0-1.13.07-2.25.1-3.38s0-2,.08-3l1.32-47q.27-9.24.52-18.49l.6-21.08c.09-3.09.17-6.17.26-9.26a7.65,7.65,0,0,1,7.5-7.5A7.55,7.55,0,0,1,232.93,317.71Z" transform="translate(0.22)"/><path class="cls-5" d="M644.36,319.79a896.62,896.62,0,0,1-28.16,87.94c-3,7.95-6.09,15.88-9.38,23.71l.76-1.79A54.57,54.57,0,0,1,602,440.26c-.15.22-.31.43-.47.64.78-1,.93-1.19.45-.59l-.77.9a23.37,23.37,0,0,1-2.25,2.2c-.2.17-.4.34-.61.5l.94-.72c-.11.25-.88.59-1.11.74a19.44,19.44,0,0,1-2.41,1.22l1.79-.76a18.81,18.81,0,0,1-4.23,1.16l2-.27a16.65,16.65,0,0,1-4.29.05l2,.27a13.8,13.8,0,0,1-3.4-.92l1.79.76a12.88,12.88,0,0,1-1.68-.9c-.27-.18-1.11-.81,0,0s.15.07-.08-.16-.37-.4-.56-.6c-.89-.9,1,1.56.39.5-.32-.53-.61-1.07-.88-1.63l.76,1.79a12.1,12.1,0,0,1-.73-2.65l.27,2a13.81,13.81,0,0,1,0-3.4l-.27,2a16.15,16.15,0,0,1,1-3.68l-.75,1.79a17.21,17.21,0,0,1,1.18-2.3,6,6,0,0,1,.73-1.07s-1.27,1.51-.57.76c.18-.2.35-.41.53-.6s.62-.6.93-.9c1-1-1.46,1-.26.18a18.83,18.83,0,0,1,2.75-1.5l-1.79.75a21,21,0,0,1,5-1.34l-2,.27a25.4,25.4,0,0,1,6.46.08l-2-.27a33.33,33.33,0,0,1,7.89,2.22l-1.79-.76c5.39,2.32,10.16,5.75,14.93,9.12a111.64,111.64,0,0,0,14.5,8.91A108.42,108.42,0,0,0,670,464.53a103.92,103.92,0,0,0,92.58-36.75,8.08,8.08,0,0,0,2.2-5.3,7.66,7.66,0,0,0-2.2-5.31c-2.75-2.52-7.95-3.23-10.6,0a95.67,95.67,0,0,1-8.11,8.73c-1.35,1.28-2.73,2.51-4.14,3.71-.81.68-1.63,1.36-2.46,2-.4.31-1.62,1.14.26-.2-.43.31-.85.65-1.27,1a99.39,99.39,0,0,1-20.33,11.56l1.79-.75a97,97,0,0,1-24.17,6.62l2-.27a97.37,97.37,0,0,1-25.75,0l2,.27A99.79,99.79,0,0,1,646.89,443l1.79.76A116.19,116.19,0,0,1,627,431.17a87.16,87.16,0,0,0-11.11-7,43.11,43.11,0,0,0-14.44-4.39c-9.44-1.11-19.06,2.57-24.25,10.73-4.77,7.5-4.71,18.24,2,24.62,6.89,6.57,17.32,6.52,25.44,2.41,7.82-4,12.51-12.19,15.82-20,7.43-17.45,14-35.31,20.14-53.26q9.09-26.64,16.49-53.81c.62-2.25,1.22-4.49,1.81-6.74,1-3.79-1.26-8.32-5.24-9.23a7.63,7.63,0,0,0-9.22,5.24Z" transform="translate(0.22)"/><path class="cls-5" d="M719.19,317.71l-2.7,95.79-2.69,95.3-1.51,53.88a7.55,7.55,0,0,0,7.5,7.5,7.66,7.66,0,0,0,7.5-7.5l2.7-95.79,2.68-95.3,1.52-53.88a7.56,7.56,0,0,0-7.5-7.5A7.65,7.65,0,0,0,719.19,317.71Z" transform="translate(0.22)"/><path class="cls-7" d="M459.59,535.94h2.33V429.89h54.33v-2.32H461.92V382.83h42c-.62-.79-1.25-1.56-1.9-2.32H461.92V351c-.77-.33-1.55-.65-2.33-.95v30.5H413.94V342.64c-.78,0-1.55.09-2.33.16v37.71H375.19V352.26c-.78.34-1.55.71-2.32,1.09v27.16H342.26v2.32h30.61v44.74H342.26v2.32h30.61V535.94h2.32V429.89a36.42,36.42,0,0,1,36.42,36.41h0v69.63h2.33V429.89h45.65Zm-84.4-108.37V382.83h36.42v44.74Zm38.75,0V382.83h.91a44.74,44.74,0,0,1,44.74,44.74H413.94Z" transform="translate(0.22)"/><path class="cls-5" d="M445.37,504.14a63.08,63.08,0,0,1-20.05,33.7c-.74.64-1.48,1.26-2.25,1.87l-5.57.52-4.54.43-.27,0-.19-1.64-.76-6.64a37.62,37.62,0,0,1-3.3-32.44c2.64-7.12,7.42-13.41,12.12-19.65,6.49-8.62,12.8-17.14,13-27.65a60.77,60.77,0,0,1,7.9,13.33,16.28,16.28,0,0,0-5.12,3.77c-.41.45-.82,1.08-.54,1.62s.84.57,1.36.63l3.76.39,3,.32a64,64,0,0,1,2.45,12.18A61.2,61.2,0,0,1,445.37,504.14Z" transform="translate(0.22)"/><path class="cls-5" d="M519.89,390.06c-8.61-16.79-21.95-30.92-37.64-41.3a114.09,114.09,0,0,0-52.56-18.38c-2.46-.23-4.92-.36-7.4-.4-2.92,0-46.86,12.64-61.58,23a114.24,114.24,0,0,0-35.34,39.52,102.51,102.51,0,0,0-12.12,51.64A113.6,113.6,0,0,0,328,495.6a110.54,110.54,0,0,0,36.44,38.75c15.34,9.78,30.75,35.73,48.86,36.65s39.05-23.55,55.69-31a104.47,104.47,0,0,0,41.73-34,110.24,110.24,0,0,0,19.6-48.95c2.57-18.08,1.37-36.73-4.8-54a113.48,113.48,0,0,0-5.58-13c-1.78-3.5-7-4.8-10.26-2.69a7.68,7.68,0,0,0-2.7,10.26q1.57,3.09,2.92,6.28l-.76-1.79A100.89,100.89,0,0,1,516,427.66l-.27-2a109.27,109.27,0,0,1-.06,28.68l.26-2A109.26,109.26,0,0,1,508.35,480l.76-1.79a104.77,104.77,0,0,1-6.68,13.1q-1.92,3.19-4.08,6.22c-.63.89-1.28,1.76-1.94,2.63-.85,1.14,1.17-1.48.29-.37l-.45.57c-.46.57-.92,1.13-1.39,1.69a94.13,94.13,0,0,1-10.17,10.39c-.91.79-1.84,1.57-2.78,2.33-.47.37-.93.77-1.42,1.12,0,0,1.58-1.2.65-.51-.29.22-.57.44-.87.65q-2.91,2.16-6,4.09a102.53,102.53,0,0,1-14.76,7.72l1.8-.76a108.86,108.86,0,0,1-27.6,7.55l2-.27a108.17,108.17,0,0,1-28.59.06l2,.26a99.77,99.77,0,0,1-25.1-6.78l1.79.75a92.78,92.78,0,0,1-13.41-7c-2.12-1.33-4.18-2.75-6.19-4.24l-.85-.65c-.92-.69.66.51.67.52-.53-.38-1-.79-1.54-1.23-1-.79-1.92-1.59-2.86-2.42A102,102,0,0,1,351.16,503q-1.21-1.43-2.37-2.91c-.34-.42-1-1.29.4.53l-.54-.71c-.43-.57-.86-1.15-1.28-1.73q-2.21-3-4.18-6.24a109.08,109.08,0,0,1-7.81-15.11l.76,1.79a106.42,106.42,0,0,1-7.34-26.84l.26,2a98.25,98.25,0,0,1-.05-25.64l-.26,2a94.59,94.59,0,0,1,6.59-24l-.75,1.8a100.54,100.54,0,0,1,7.19-13.86q2.07-3.33,4.38-6.49c.35-.47.7-.95,1.06-1.42s1.22-1.5-.3.39l.43-.57c.85-1.07,1.72-2.12,2.6-3.16a107.9,107.9,0,0,1,10.89-11c1-.86,2-1.71,3-2.53l1.39-1.11.56-.44c-2,1.59-.55.43-.1.09q3.13-2.34,6.44-4.46a103.61,103.61,0,0,1,15.39-8.11l-1.8.76c7.76-3.26,42.14-10.95,48.4-10.11l-2-.27A106.34,106.34,0,0,1,458.83,353l-1.79-.75a109.89,109.89,0,0,1,12.6,6.33q3,1.79,6,3.76c.92.62,1.83,1.26,2.74,1.91l1.34,1,.75.56c1,.78-1.44-1.13-.35-.27a111.1,111.1,0,0,1,10.37,9.26q2.4,2.45,4.64,5c.76.89,1.51,1.79,2.24,2.71.37.45,1.61,2.1.09.08l1.11,1.48a97.82,97.82,0,0,1,8.39,13.54c1.8,3.5,7,4.8,10.27,2.69A7.68,7.68,0,0,0,519.89,390.06Z" transform="translate(0.22)"/><path class="cls-5" d="M432.5,512.46a3.79,3.79,0,0,1-2.74-6.56c.09-.37.16-.65.26-1l-.11-.24c-3.48-8.3-25.68,14.83-26.64,22.63a29.91,29.91,0,0,0,.53,10.33,120.41,120.41,0,0,1-11-50,117,117,0,0,1,.72-13q.6-5.3,1.66-10.51a121.9,121.9,0,0,1,24.15-51.62c6.88.39,12.9-.66,13.48-14,.11-2.37,1.86-4.42,2.25-6.76-.65.09-1.32.14-2,.19l-.62,0h-.08a3.75,3.75,0,0,1-3.91-3.57,3.78,3.78,0,0,1,.83-2.53l.86-1.05c.43-.53.87-1.06,1.3-1.6l.14-.16,1.48-1.83a10.78,10.78,0,0,0-3.55-3.43c-5-2.91-11.8-.89-15.38,3.59s-4.27,10.78-3,16.39a43.38,43.38,0,0,0,6,13.38l-.82,1a122,122,0,0,0-12.79,20.27c1-7.94-11.42-36.61-16.22-42.68-5.77-7.29-17.61-4.11-18.63,5.13l0,.27c.72.41,1.41.83,2.1,1.29a5.13,5.13,0,0,1-2.07,9.33h-.1C359.05,419.45,389.68,455,397.35,447a125,125,0,0,0-6.73,31.7,119,119,0,0,0,.08,19.16l0-.23c-1.7-13.88-30.93-34.52-39.47-32.8-4.91,1-9.75.76-9,5.72,0,.08,0,.16,0,.24a35.1,35.1,0,0,1,3.86,1.86c.71.4,1.41.83,2.1,1.28a5.13,5.13,0,0,1-2.07,9.33l-.11,0-.21,0c-4.35,15,27.91,39.12,47.52,31.44h0a125,125,0,0,0,8.4,24.52h30c.11-.33.21-.67.31-1a34,34,0,0,1-8.31-.49c2.23-2.73,4.45-5.49,6.68-8.22l.14-.16,3.4-4.19h0a50,50,0,0,0-1.46-12.72Zm-34.37-67.62v0Zm-6.65,59.94-.26-.59c0-.42,0-.83,0-1.27,0-.11,0-.23,0-.35.09.74.18,1.48.29,2.23Z" transform="translate(0.22)"/><circle class="cls-5" cx="95.47" cy="439" r="11"/><circle class="cls-5" cx="227.47" cy="559" r="11"/><circle class="cls-5" cx="728.47" cy="559" r="11"/><circle class="cls-5" cx="755.47" cy="419" r="11"/><circle class="cls-5" cx="723.47" cy="317" r="11"/><path class="cls-5" d="M264.25,419a10.94,10.94,0,1,1-.21-2.16A11.14,11.14,0,0,1,264.25,419Z" transform="translate(0.22)"/><circle class="cls-5" cx="484.47" cy="349" r="11"/><path class="cls-5" d="M375.25,349a10.94,10.94,0,1,1-.21-2.16A11.14,11.14,0,0,1,375.25,349Z" transform="translate(0.22)"/><path class="cls-5" d="M233.25,317a10.94,10.94,0,1,1-.21-2.16A11.14,11.14,0,0,1,233.25,317Z" transform="translate(0.22)"/><circle class="cls-5" cx="599.47" cy="443" r="11"/><circle class="cls-5" cx="426.47" cy="338" r="16"/><path class="cls-5" d="M858.94,570.84l-857.75.31a1.19,1.19,0,0,1,0-2.38h0l857.75-.31a1.19,1.19,0,1,1,0,2.38Z" transform="translate(0.22)"/></svg>